<!DOCTYPE svg PUBLIC "-//W3C//DTD SVG 1.1//EN" "http://www.w3.org/Graphics/SVG/1.1/DTD/svg11.dtd">
<svg xmlns="http://www.w3.org/2000/svg" xmlns:xlink="http://www.w3.org/1999/xlink" width="161px" height="603px" version="1.1"><defs><clipPath id="mx-clip-34-318-121-29-0"><rect x="34" y="318" width="121" height="29"/></clipPath><clipPath id="mx-clip-4-318-51-29-0"><rect x="4" y="318" width="51" height="29"/></clipPath><clipPath id="mx-clip-34-31-121-29-0"><rect x="34" y="31" width="121" height="29"/></clipPath><clipPath id="mx-clip-4-31-31-29-0"><rect x="4" y="31" width="31" height="29"/></clipPath><clipPath id="mx-clip-34-61-121-25-0"><rect x="34" y="61" width="121" height="25"/></clipPath><clipPath id="mx-clip-4-55-31-25-0"><rect x="4" y="55" width="31" height="25"/></clipPath><clipPath id="mx-clip-34-550-121-29-0"><rect x="34" y="550" width="121" height="29"/></clipPath><clipPath id="mx-clip-4-550-31-29-0"><rect x="4" y="550" width="31" height="29"/></clipPath></defs><g transform="translate(0.5,0.5)"><rect x="0" y="239" width="160" height="130" fill="#ffffff" stroke="#000000" pointer-events="none"/><path d="M 0 265 L 0 239 L 160 239 L 160 265 Z" fill="#e0e0e0" stroke="#000000" stroke-miterlimit="10" pointer-events="none"/><g fill="#000000" font-family="Helvetica" text-anchor="middle" font-size="14px"><text x="78.91" y="256.5">Model Server</text></g><rect x="0" y="265" width="160" height="48" fill="#ffffff" stroke="#000000" pointer-events="none"/><path d="M 0 287 L 0 265 L 160 265 L 160 287 Z" fill="none" stroke="#000000" stroke-miterlimit="10" pointer-events="none"/><g fill="#000000" font-family="Helvetica" font-weight="bold" text-anchor="middle" font-size="14px"><text x="78.91" y="280.5">Clients</text></g><path d="M 0 313 M 160 313 M 160 343 L 0 343" fill="none" stroke="#000000" stroke-miterlimit="10" pointer-events="none"/><g fill="#000000" font-family="Helvetica" font-weight="bold" clip-path="url(#mx-clip-34-318-121-29-0)" text-anchor="middle" font-size="14px"><text x="93.91" y="332.5">Value</text></g><path d="M 0 313 M 60 313 L 60 343 M 0 343" fill="none" stroke="#000000" stroke-miterlimit="10" pointer-events="none"/><g fill="#000000" font-family="Helvetica" font-weight="bold" clip-path="url(#mx-clip-4-318-51-29-0)" text-anchor="middle" font-size="14px"><text x="28.91" y="332.5">Key</text></g><path d="M 0 343 M 160 343 M 160 369 M 0 369" fill="none" stroke="#000000" stroke-miterlimit="10" pointer-events="none"/><path d="M 0 343 M 60 343 L 60 369 M 0 369" fill="none" stroke="#000000" stroke-miterlimit="10" pointer-events="none"/><rect x="0" y="0" width="160" height="82" fill="#ffffff" stroke="#000000" pointer-events="none"/><path d="M 0 26 L 0 0 L 160 0 L 160 26 Z" fill="#e0e0e0" stroke="#000000" stroke-miterlimit="10" pointer-events="none"/><g fill="#000000" font-family="Helvetica" text-anchor="middle" font-size="14px"><text x="78.91" y="17.5">Python</text></g><path d="M 0 26 M 160 26 M 160 56 L 0 56" fill="none" stroke="#000000" stroke-miterlimit="10" pointer-events="none"/><g fill="#000000" font-family="Helvetica" font-weight="bold" clip-path="url(#mx-clip-34-31-121-29-0)" text-anchor="middle" font-size="14px"><text x="93.91" y="45.5">Value</text></g><path d="M 0 26 M 40 26 L 40 56 M 0 56" fill="none" stroke="#000000" stroke-miterlimit="10" pointer-events="none"/><g fill="#000000" font-family="Helvetica" font-weight="bold" clip-path="url(#mx-clip-4-31-31-29-0)" text-anchor="middle" font-size="14px"><text x="18.91" y="45.5">Key</text></g><path d="M 0 56 M 160 56 M 160 82 M 0 82" fill="none" stroke="#000000" stroke-miterlimit="10" pointer-events="none"/><g fill="#000000" font-family="Helvetica" clip-path="url(#mx-clip-34-61-121-25-0)" text-anchor="middle" font-size="14px"><text x="93.91" y="75.5">1</text></g><path d="M 0 56 M 40 56 L 40 82 M 0 82" fill="none" stroke="#000000" stroke-miterlimit="10" pointer-events="none"/><g fill="#000000" font-family="Helvetica" clip-path="url(#mx-clip-4-55-31-25-0)" text-anchor="middle" font-size="14px"><text x="18.91" y="74.32">A</text></g><rect x="0" y="519" width="160" height="82" fill="#ffffff" stroke="#000000" pointer-events="none"/><path d="M 0 545 L 0 519 L 160 519 L 160 545 Z" fill="#e0e0e0" stroke="#000000" stroke-miterlimit="10" pointer-events="none"/><g fill="#000000" font-family="Helvetica" text-anchor="middle" font-size="14px"><text x="78.91" y="536.5">Browser</text></g><path d="M 0 545 M 160 545 M 160 575 L 0 575" fill="none" stroke="#000000" stroke-miterlimit="10" pointer-events="none"/><g fill="#000000" font-family="Helvetica" font-weight="bold" clip-path="url(#mx-clip-34-550-121-29-0)" text-anchor="middle" font-size="14px"><text x="93.91" y="564.5">Value</text></g><path d="M 0 545 M 40 545 L 40 575 M 0 575" fill="none" stroke="#000000" stroke-miterlimit="10" pointer-events="none"/><g fill="#000000" font-family="Helvetica" font-weight="bold" clip-path="url(#mx-clip-4-550-31-29-0)" text-anchor="middle" font-size="14px"><text x="18.91" y="564.5">Key</text></g><path d="M 0 575 M 160 575 M 160 601 M 0 601" fill="none" stroke="#000000" stroke-miterlimit="10" pointer-events="none"/><path d="M 0 575 M 40 575 L 40 601 M 0 601" fill="none" stroke="#000000" stroke-miterlimit="10" pointer-events="none"/></g></svg>